<?xml version="1.0" standalone="no"?>
<!DOCTYPE svg PUBLIC "-//W3C//DTD SVG 20010904//EN"
 "http://www.w3.org/TR/2001/REC-SVG-20010904/DTD/svg10.dtd">
<svg version="1.0" xmlns="http://www.w3.org/2000/svg"
 width="500.000000pt" height="500.000000pt" viewBox="0 0 500.000000 500.000000"
 preserveAspectRatio="xMidYMid meet">

<g transform="translate(0.000000,500.000000) scale(0.100000,-0.100000)"
fill="#000000" stroke="none">
<path d="M935 4830 c-27 -4 -86 -21 -130 -39 -224 -86 -386 -265 -456 -502
-21 -70 -22 -98 -26 -509 l-5 -435 -33 -100 c-69 -204 -99 -360 -117 -597 -22
-294 25 -642 125 -923 25 -68 25 -79 30 -420 5 -381 10 -415 67 -541 75 -165
209 -300 376 -375 119 -54 158 -59 524 -59 252 -1 344 -4 372 -14 21 -8 35 -9
32 -4 -4 6 5 2 19 -7 15 -9 32 -13 38 -9 8 4 9 3 5 -4 -7 -11 17 -16 61 -15 7
1 10 -3 7 -8 -8 -13 10 -11 25 4 11 10 13 9 8 -4 -4 -11 5 -18 34 -26 21 -5
36 -7 34 -3 -3 5 2 11 11 14 8 3 13 10 9 15 -7 12 19 7 55 -8 23 -11 6 -10
-27 0 -6 2 -11 0 -11 -6 0 -5 4 -9 9 -8 4 2 6 -4 3 -12 -4 -10 0 -15 12 -16
11 0 27 -2 37 -4 14 -3 17 1 12 18 -5 17 -4 19 4 7 5 -8 13 -12 16 -8 3 3 -1
12 -9 21 -14 13 -14 16 1 21 27 11 38 -10 20 -38 -9 -14 -13 -27 -8 -31 5 -3
12 1 14 7 4 10 6 10 6 0 1 -9 11 -11 36 -6 24 4 35 3 35 -6 0 -7 7 -10 15 -6
8 3 15 0 15 -7 0 -8 4 -6 10 3 9 13 10 13 10 0 1 -28 20 12 20 43 0 15 4 27 9
27 5 0 9 -14 9 -30 -1 -17 -5 -30 -10 -30 -4 0 -8 -5 -8 -11 0 -5 5 -7 10 -4
6 3 16 3 23 -2 21 -13 35 -11 33 5 -2 9 -8 18 -14 20 -7 2 -12 9 -12 15 0 8 4
7 12 -1 22 -22 30 -13 26 28 -2 28 0 40 9 40 7 0 13 -8 13 -18 0 -10 6 -19 13
-19 6 0 20 -4 30 -8 13 -5 17 -2 17 14 0 15 -7 22 -22 23 -13 1 11 4 52 8 49
4 -4 7 -154 8 -126 1 -227 4 -224 7 9 9 287 14 1243 20 1035 7 998 5 1155 82
79 39 110 62 185 138 100 99 154 188 197 325 l23 75 0 1635 c0 1837 6 1678
-75 1845 -90 183 -236 308 -445 382 l-80 28 -1625 1 c-894 1 -1647 -2 -1675
-6z m3339 -50 c191 -49 364 -191 456 -376 75 -150 71 -36 68 -1852 l-3 -1627
-28 -80 c-67 -190 -207 -342 -389 -424 -128 -58 -107 -56 -928 -52 -1075 5
-1179 7 -1240 14 -30 4 -50 4 -43 0 6 -5 -36 -8 -93 -8 -57 0 -96 3 -86 6 13
5 9 8 -13 12 -16 2 -11 3 13 1 24 -2 132 0 240 4 l197 7 -135 5 -135 6 145 3
c102 3 132 6 100 11 -25 4 -39 8 -32 8 10 2 12 99 12 477 -1 326 2 481 10 495
8 15 8 20 -1 18 -11 -3 -23 13 -34 46 -6 19 -6 19 -19 0 -11 -15 -14 -119 -15
-526 -2 -480 -1 -507 16 -511 10 -3 -9 -4 -42 -4 -33 0 -45 2 -27 4 24 3 32 9
32 24 0 10 -4 19 -10 19 -5 0 -10 -4 -10 -10 0 -5 -4 -10 -10 -10 -5 0 -10 9
-10 20 0 13 7 20 20 20 11 0 20 5 20 10 0 6 -9 10 -20 10 -20 0 -20 7 -20 401
0 396 0 400 20 394 17 -5 20 -2 20 24 0 16 -4 33 -10 36 -5 3 -10 13 -10 21 0
8 4 13 8 10 5 -3 9 25 10 61 1 66 -11 108 -27 98 -5 -2 -14 2 -20 9 -16 19 5
32 24 16 8 -7 15 -10 15 -6 0 3 -18 18 -40 32 -34 23 -48 26 -88 21 -26 -2
-56 -1 -67 3 -13 6 15 9 73 9 86 1 94 -1 99 -19 3 -11 9 -20 12 -20 9 0 61
-78 61 -91 0 -6 -4 -8 -8 -5 -4 2 -8 -7 -9 -22 -2 -26 -1 -26 7 -4 5 12 12 22
14 22 9 0 67 -90 59 -90 -4 0 0 -5 10 -11 9 -5 17 -14 17 -20 0 -9 8 -21 38
-54 6 -7 12 -18 12 -24 0 -6 4 -11 9 -11 10 0 27 -39 23 -53 -1 -5 2 -6 7 -3
5 3 14 0 20 -8 7 -9 23 -11 48 -7 32 5 44 16 88 78 57 80 71 97 62 70 -4 -11
-3 -16 4 -12 6 4 8 14 4 22 -6 17 73 145 85 138 4 -3 7 1 6 8 0 6 15 36 34 64
l35 53 211 0 c264 0 341 19 424 103 19 20 38 33 44 30 5 -3 6 -1 2 6 -4 6 3
25 15 42 49 69 49 75 49 822 0 508 -3 711 -12 741 -17 59 -74 142 -124 180
-24 18 -40 37 -36 41 4 5 2 5 -4 2 -6 -3 -34 2 -62 13 -47 18 -80 20 -402 20
l-350 1 0 109 c0 124 -9 157 -45 166 -14 3 -22 11 -18 17 4 7 0 8 -13 3 -36
-15 -66 -15 -60 -1 4 11 0 12 -17 6 -16 -6 -22 -17 -22 -37 0 -18 5 -28 13
-26 9 1 12 -27 12 -119 l0 -120 -335 2 c-185 1 -337 5 -340 8 -2 4 53 7 123 8
372 1 433 3 427 13 -3 6 0 10 7 10 8 0 5 5 -5 11 -10 6 -27 9 -38 6 -10 -3
-19 -1 -19 4 0 5 11 9 25 9 l25 0 2 486 c2 315 -1 488 -7 493 -5 4 -16 6 -22
5 -7 -1 -17 -2 -23 -3 -7 -1 -10 -175 -10 -502 l0 -500 -27 3 -28 3 0 485 c0
456 1 485 18 482 10 -2 17 3 17 13 0 12 -13 15 -67 15 -36 0 -64 2 -61 5 4 5
57 11 112 14 14 1 17 7 14 26 -4 17 -1 25 8 25 9 0 14 -11 14 -29 0 -26 2 -28
31 -22 16 3 30 9 30 14 -1 4 -1 12 -1 17 0 6 -8 10 -17 10 -15 0 -16 2 -3 10
18 12 27 11 -160 16 -163 4 -215 0 -189 -17 9 -5 9 -9 2 -9 -6 0 -14 4 -18 9
-3 6 -15 8 -28 5 -12 -3 -35 -8 -52 -10 -16 -3 -32 -10 -33 -15 -2 -5 -8 -6
-13 -3 -6 3 -16 0 -24 -6 -8 -7 -15 -9 -15 -5 0 4 -7 2 -15 -5 -8 -6 -18 -10
-22 -7 -13 7 -55 -12 -48 -22 3 -5 1 -12 -4 -15 -5 -4 -13 -1 -17 5 -5 8 -3 9
6 4 8 -5 11 -4 6 3 -4 6 -13 9 -21 6 -8 -4 -13 -10 -10 -14 3 -5 -3 -7 -12 -5
-10 1 -24 -2 -30 -8 -7 -5 -13 -6 -13 -3 0 4 -12 1 -27 -7 -37 -19 -102 -47
-108 -46 -12 1 -182 -95 -203 -114 -13 -12 -27 -22 -30 -21 -12 1 -62 -31 -62
-39 0 -5 -5 -5 -10 -2 -6 3 -13 -1 -16 -9 -3 -9 -10 -14 -14 -11 -4 2 -19 -5
-32 -18 -14 -12 -32 -26 -40 -32 -112 -74 -353 -306 -446 -430 -28 -38 -52
-73 -52 -77 0 -4 -11 -18 -23 -30 -36 -37 -129 -197 -121 -209 4 -8 3 -9 -4
-5 -7 4 -28 -26 -57 -81 l-45 -88 3 385 3 385 27 80 c78 235 266 414 500 475
69 18 139 19 1688 19 1576 1 1618 1 1693 -19z m-2166 -7 c-10 -2 -26 -2 -35 0
-10 3 -2 5 17 5 19 0 27 -2 18 -5z m-268 -57 c0 -2 -9 -6 -20 -9 -11 -3 -18
-1 -14 4 5 9 34 13 34 5z m305 -6 c-3 -5 -14 -10 -23 -10 -15 0 -15 2 -2 10
20 13 33 13 25 0z m95 -30 c0 -5 -2 -10 -4 -10 -3 0 -8 5 -11 10 -3 6 -1 10 4
10 6 0 11 -4 11 -10z m-660 -66 c0 -8 -19 -13 -24 -6 -3 5 1 9 9 9 8 0 15 -2
15 -3z m953 -687 c4 3 7 4 7 1 0 -3 -11 -13 -25 -22 -23 -15 -25 -15 -25 -1 0
10 5 13 12 9 8 -5 9 -2 4 11 -5 14 -4 16 7 7 8 -7 17 -9 20 -5z m-305 -224
c-10 -2 -28 -2 -40 0 -13 2 -5 4 17 4 22 1 32 -1 23 -4z m-597 -96 c-10 -9
-11 -8 -5 6 3 10 9 15 12 12 3 -3 0 -11 -7 -18z m89 14 c-8 -5 -26 -11 -40
-15 -21 -5 -20 -3 5 9 32 15 60 20 35 6z m-75 -41 c3 -6 -1 -7 -9 -4 -18 7
-21 14 -7 14 6 0 13 -4 16 -10z m-60 -59 c3 -5 2 -12 -3 -15 -5 -3 -9 1 -9 9
0 17 3 19 12 6z m275 -28 c-8 -3 -21 -10 -28 -16 -9 -7 -11 -6 -6 7 3 9 16 16
28 15 14 0 16 -2 6 -6z m1527 -17 c36 -17 60 -38 80 -67 l28 -43 3 -498 3
-498 -792 0 c-436 0 -790 2 -788 4 2 3 66 6 141 8 75 1 135 5 133 8 -2 3 6 6
18 6 135 1 180 5 167 14 -8 5 -60 8 -115 7 -55 -2 -82 -2 -60 0 29 3 35 7 25
14 -11 7 -8 8 10 4 l25 -6 -3 126 c-3 121 -2 127 17 132 12 3 21 10 21 15 0 5
5 6 11 2 8 -4 7 -9 -2 -15 -10 -6 -11 -9 -1 -9 9 0 12 -32 12 -125 l0 -125 30
0 30 0 0 195 c0 123 4 195 10 195 6 0 10 13 10 28 0 18 -5 29 -14 29 -7 0 -12
-7 -9 -16 4 -21 -12 -45 -25 -37 -6 4 -7 17 -3 34 5 15 7 35 5 45 -1 9 4 17
12 17 8 0 14 9 14 20 0 11 5 20 10 20 6 0 10 7 10 15 0 8 -4 15 -10 15 -5 0
-10 7 -10 15 0 14 -3 13 -27 -1 -18 -10 -22 -11 -11 -2 32 27 38 68 38 259 l0
189 -30 0 -30 0 0 -197 c0 -109 4 -205 10 -213 6 -9 5 -17 -1 -21 -6 -3 -11
-19 -13 -35 -1 -16 -5 -34 -9 -41 -4 -6 -3 -14 2 -17 5 -3 8 -31 6 -61 -1 -30
2 -55 7 -55 5 0 6 -4 3 -10 -3 -5 -1 -10 4 -10 6 0 11 -7 11 -15 0 -18 -17
-20 -22 -3 -3 7 -12 9 -22 5 -14 -6 -17 -14 -13 -36 5 -21 2 -31 -10 -35 -21
-9 -31 3 -13 14 12 8 10 10 -7 10 -27 0 -41 -20 -21 -31 15 -8 14 -59 -1 -59
-12 0 -10 40 2 40 7 1 3 6 -8 13 -24 14 -31 37 -11 37 21 0 76 52 76 72 0 10
5 18 11 18 5 0 8 4 5 8 -3 5 -6 29 -7 55 -2 26 -8 47 -13 47 -6 0 -4 5 4 10
12 8 12 10 1 10 -16 0 -87 61 -83 72 1 4 -10 8 -25 8 -14 0 -24 3 -20 6 3 4
23 3 43 -1 28 -5 34 -9 23 -16 -11 -7 -10 -10 8 -15 13 -4 20 -10 17 -15 -3
-5 2 -9 10 -9 9 0 16 -4 16 -10 0 -5 8 -6 17 -3 12 5 13 8 4 11 -10 3 -10 6
-2 11 8 5 5 16 -11 36 -12 16 -16 25 -8 20 13 -7 13 -6 2 7 -11 14 -10 18 5
27 16 9 16 10 -4 11 -23 0 -23 1 -23 155 0 102 4 155 11 155 5 0 7 5 3 12 -5
8 -2 9 9 5 14 -5 17 0 17 33 l0 40 -177 3 c-98 1 135 3 517 5 l695 2 52 -24z
m-1597 -6 c-13 -11 -27 -20 -32 -20 -5 0 -6 -6 -2 -12 5 -10 4 -10 -6 -1 -13
12 -5 37 10 28 4 -3 13 2 20 10 7 8 17 15 23 15 5 0 0 -9 -13 -20z m447 -5 c0
-8 -4 -15 -9 -15 -4 0 -8 7 -8 15 0 8 4 15 8 15 5 0 9 -7 9 -15z m48 -17 c6
-4 2 -8 -7 -8 -10 0 -18 7 -18 17 0 9 3 12 8 7 4 -5 12 -12 17 -16z m-560 -38
c3 -6 -1 -7 -9 -4 -18 7 -21 14 -7 14 6 0 13 -4 16 -10z m515 0 c0 -5 -5 -10
-11 -10 -5 0 -7 5 -4 10 3 6 8 10 11 10 2 0 4 -4 4 -10z m0 -330 c0 -5 -2 -10
-4 -10 -3 0 -8 5 -11 10 -3 6 -1 10 4 10 6 0 11 -4 11 -10z m-50 -20 c-8 -5
-22 -9 -30 -9 -10 0 -8 3 5 9 27 12 43 12 25 0z m50 -10 c0 -5 -4 -10 -9 -10
-6 0 -13 5 -16 10 -3 6 1 10 9 10 9 0 16 -4 16 -10z m-105 -11 c4 -6 17 -15
29 -20 17 -8 15 -9 -14 -5 -35 3 -79 -18 -108 -54 -10 -13 -11 -12 -5 5 6 18
5 19 -13 5 -10 -8 -16 -10 -12 -6 4 5 2 16 -5 25 -11 14 -10 14 6 2 12 -10 17
-10 17 -1 0 6 6 10 13 7 17 -6 49 12 42 24 -4 5 3 9 15 9 12 0 18 5 15 10 -3
6 -2 10 4 10 5 0 13 -5 16 -11z m-120 -110 c-3 -12 -7 -24 -10 -27 -3 -3 -3 5
-1 19 6 30 5 29 10 29 3 0 3 -10 1 -21z m10 -140 c-3 -3 14 -19 38 -35 23 -16
45 -32 48 -37 3 -4 14 -5 25 -1 10 4 17 5 14 3 -3 -2 -15 -13 -28 -24 -17 -14
-23 -15 -20 -5 2 8 -2 14 -9 15 -6 0 -15 4 -20 9 -5 5 -3 6 5 2 6 -4 12 -2 12
3 0 6 -7 11 -15 11 -7 0 -19 8 -25 18 -9 14 -10 12 -5 -13 6 -28 5 -29 -8 -10
-8 10 -12 26 -9 35 5 13 4 13 -13 0 -17 -13 -18 -13 -10 0 13 21 15 40 4 40
-6 0 -7 5 -3 11 4 8 9 7 15 -2 4 -7 6 -16 4 -20z m285 -29 c0 -5 -4 -10 -10
-10 -5 0 -10 5 -10 10 0 6 5 10 10 10 6 0 10 -4 10 -10z m-123 -46 c-3 -3 -12
-4 -19 -1 -8 3 -5 6 6 6 11 1 17 -2 13 -5z m-124 -21 c-7 -2 -19 -2 -25 0 -7
3 -2 5 12 5 14 0 19 -2 13 -5z m110 -9 c-6 -16 -33 -27 -33 -14 0 6 6 10 13
10 8 0 7 3 -3 10 -12 7 -10 9 7 8 12 -1 19 -7 16 -14z m37 2 c0 -2 -7 -7 -16
-10 -8 -3 -12 -2 -9 4 6 10 25 14 25 6z m-25 -76 c4 -6 -8 -10 -29 -10 -20 0
-36 5 -36 10 0 6 13 10 29 10 17 0 33 -4 36 -10z m-77 -197 c-21 -2 -55 -2
-75 0 -21 2 -4 4 37 4 41 0 58 -2 38 -4z m-300 -40 c-10 -2 -26 -2 -35 0 -10
3 -2 5 17 5 19 0 27 -2 18 -5z m1692 -278 c0 -139 -12 -186 -60 -228 -67 -60
-74 -61 -355 -67 l-259 -5 -34 -45 c-19 -25 -39 -44 -43 -43 -5 2 -6 -3 -4
-10 3 -6 -6 -24 -20 -39 -14 -15 -26 -31 -28 -35 -1 -5 -6 -7 -10 -5 -5 1 -6
-2 -2 -7 8 -13 -45 -92 -56 -85 -14 8 -10 26 4 18 6 -4 9 -3 4 1 -14 16 -46
13 -39 -3 3 -10 1 -13 -6 -8 -6 3 -13 2 -17 -3 -3 -5 -15 -8 -27 -6 -11 3 -18
1 -14 -2 12 -12 40 -12 48 0 6 9 8 8 8 -3 0 -13 1 -13 10 0 7 11 12 12 21 3 8
-8 5 -20 -14 -48 l-25 -36 -16 22 c-8 12 -13 26 -10 31 3 4 1 8 -5 8 -17 0
-91 119 -79 126 7 5 8 2 3 -6 -5 -9 -4 -11 3 -6 7 4 12 1 13 -6 0 -10 2 -10 6
0 2 6 9 9 15 6 7 -4 6 -9 -2 -14 -7 -4 -9 -13 -5 -20 6 -10 10 -9 17 4 11 19
-10 66 -21 47 -13 -20 -28 10 -26 50 1 24 -2 36 -12 36 -7 0 -13 -5 -13 -10 0
-5 -6 -4 -14 2 -11 9 -16 9 -22 0 -4 -7 -3 -9 4 -5 6 3 13 2 17 -3 3 -6 12 -8
19 -5 9 3 13 -5 12 -29 -1 -44 -13 -39 -53 23 -22 33 -28 50 -20 54 7 2 4 5
-7 5 -13 1 -16 6 -11 19 3 9 6 101 5 205 l-1 187 36 0 c19 0 35 4 35 9 0 5
-16 7 -35 4 -22 -3 -35 -1 -35 7 0 6 -12 10 -27 8 l-28 -3 -3 -186 -2 -187 25
-6 c14 -4 25 -13 25 -22 0 -14 -2 -14 -22 0 -18 13 -61 16 -233 18 l-210 3
178 2 177 3 0 155 c0 144 1 155 18 155 10 0 19 6 19 13 0 6 2 19 4 27 3 9 -5
16 -18 18 -13 2 -23 8 -23 13 0 5 10 9 23 10 21 0 21 1 2 9 -11 5 244 9 598 9
l617 1 0 -125z m-1260 100 c0 -12 -13 -15 -65 -13 -98 4 -79 22 28 27 27 1 37
-3 37 -14z m0 -61 c0 -8 -4 -14 -10 -14 -5 0 -10 9 -10 21 0 11 5 17 10 14 6
-3 10 -13 10 -21z m-520 -228 c0 -6 -5 -3 -11 7 -6 9 -15 14 -21 11 -7 -4 -8
-2 -4 5 9 14 36 -3 36 -23z m80 -76 c0 -5 6 -7 14 -4 8 3 17 1 20 -4 8 -13
-44 -6 -57 7 -8 8 -6 11 6 11 9 0 17 -4 17 -10z m-222 -35 c-3 -3 -9 2 -12 12
-6 14 -5 15 5 6 7 -7 10 -15 7 -18z m43 -62 c13 -16 12 -17 -3 -4 -17 13 -22
21 -14 21 2 0 10 -8 17 -17z m61 -27 c3 3 9 1 12 -4 3 -6 -2 -9 -11 -7 -10 2
-21 4 -24 4 -4 1 -10 9 -13 18 -6 16 -6 16 12 0 10 -9 21 -14 24 -11z m33 -26
c-3 -5 -12 -10 -18 -10 -7 0 -6 4 3 10 19 12 23 12 15 0z m-1310 -217 c46 -96
141 -254 163 -270 9 -7 12 -13 8 -13 -14 0 146 -200 236 -295 49 -52 97 -95
106 -95 8 0 13 -3 10 -6 -11 -10 118 -119 239 -203 56 -39 65 -42 80 -30 16
13 17 12 5 -2 -11 -15 -8 -20 24 -40 20 -12 43 -22 50 -22 7 0 11 -3 9 -7 -7
-11 104 -62 117 -54 7 4 10 4 6 -1 -10 -11 41 -37 56 -28 6 3 8 3 4 -2 -4 -4
0 -14 10 -21 14 -11 -26 -13 -243 -14 -143 0 -289 5 -325 11 -152 24 -277 89
-388 201 -70 71 -101 114 -142 196 -57 116 -62 151 -67 475 -3 163 -3 297 0
297 3 0 22 -35 42 -77z m1885 63 c0 -6 -7 -20 -16 -31 -14 -19 -15 -18 -12 11
1 17 8 31 15 31 7 0 13 -5 13 -11z m-40 -30 c0 -3 -4 -8 -10 -11 -5 -3 -10 -1
-10 4 0 6 5 11 10 11 6 0 10 -2 10 -4z m-13 -98 c-2 -13 -4 -5 -4 17 -1 22 1
32 4 23 2 -10 2 -28 0 -40z m125 28 c16 -22 16 -23 -4 -22 -15 1 -22 8 -23 24
-2 28 5 28 27 -2z m1 -93 c-3 -7 -10 -13 -15 -13 -6 0 -7 7 -4 16 3 9 6 21 6
27 0 7 4 7 9 -2 5 -8 7 -20 4 -28z m-150 -900 c-7 -2 -19 -2 -25 0 -7 3 -2 5
12 5 14 0 19 -2 13 -5z m-140 -30 c-7 -2 -19 -2 -25 0 -7 3 -2 5 12 5 14 0 19
-2 13 -5z m70 -120 c-13 -2 -33 -2 -45 0 -13 2 -3 4 22 4 25 0 35 -2 23 -4z
m137 -33 c0 -5 -4 -10 -10 -10 -5 0 -10 5 -10 10 0 6 5 10 10 10 6 0 10 -4 10
-10z m-260 -20 c0 -5 -7 -7 -15 -4 -8 4 -15 8 -15 10 0 2 7 4 15 4 8 0 15 -4
15 -10z m260 -36 c0 -8 -19 -13 -24 -6 -3 5 1 9 9 9 8 0 15 -2 15 -3z"/>
<path d="M2508 4773 c6 -2 18 -2 25 0 6 3 1 5 -13 5 -14 0 -19 -2 -12 -5z"/>
<path d="M3156 4712 c-3 -5 1 -9 9 -9 8 0 12 4 9 9 -3 4 -7 8 -9 8 -2 0 -6 -4
-9 -8z"/>
<path d="M2670 3936 c0 -8 4 -17 9 -20 5 -4 7 3 4 14 -6 23 -13 26 -13 6z"/>
<path d="M2423 3805 c0 -44 2 -61 4 -37 2 23 2 59 0 80 -2 20 -4 1 -4 -43z"/>
<path d="M2681 3834 c0 -11 3 -14 6 -6 3 7 2 16 -1 19 -3 4 -6 -2 -5 -13z"/>
<path d="M2430 3700 c-12 -8 -9 -10 13 -10 15 0 27 5 27 10 0 13 -20 13 -40 0z"/>
<path d="M3979 3218 c-46 -15 -49 -38 -49 -357 0 -287 1 -299 21 -325 28 -36
80 -36 108 0 20 26 21 38 21 325 0 164 -4 309 -9 322 -12 30 -56 47 -92 35z"/>
<path d="M2245 1630 c3 -5 8 -10 11 -10 2 0 4 5 4 10 0 6 -5 10 -11 10 -5 0
-7 -4 -4 -10z"/>
<path d="M2856 1508 c3 -5 10 -6 15 -3 13 9 11 12 -6 12 -8 0 -12 -4 -9 -9z"/>
<path d="M2825 1501 c-3 -5 -2 -12 3 -15 5 -3 9 1 9 9 0 17 -3 19 -12 6z"/>
<path d="M2766 1409 c3 -5 9 -7 14 -4 4 3 11 0 13 -5 3 -6 4 -5 3 1 -1 7 -10
13 -19 15 -9 1 -15 -2 -11 -7z"/>
<path d="M2405 1360 c-3 -5 3 -15 15 -22 11 -7 20 -20 20 -28 0 -13 2 -13 9
-1 13 20 2 41 -16 34 -10 -4 -14 -2 -9 5 3 6 2 13 -3 16 -5 4 -12 2 -16 -4z"/>
<path d="M2775 1339 c-4 -6 -5 -12 -2 -15 2 -3 7 2 10 11 7 17 1 20 -8 4z"/>
<path d="M2693 1263 c0 -7 4 -13 8 -13 4 0 9 6 12 13 3 8 0 14 -7 14 -7 0 -13
-6 -13 -14z"/>
<path d="M2665 1261 c-3 -5 -2 -12 3 -15 5 -3 9 1 9 9 0 17 -3 19 -12 6z"/>
<path d="M2420 1250 c0 -3 6 -14 13 -23 11 -16 12 -15 13 6 1 14 -4 24 -12 24
-8 0 -14 -3 -14 -7z"/>
<path d="M2485 1230 c-3 -5 -1 -10 4 -10 6 0 11 5 11 10 0 6 -2 10 -4 10 -3 0
-8 -4 -11 -10z"/>
<path d="M2520 1221 c0 -9 30 -24 36 -18 2 1 -6 8 -16 15 -11 7 -20 8 -20 3z"/>
<path d="M2610 1210 c0 -6 7 -10 15 -10 8 0 15 2 15 4 0 2 -7 6 -15 10 -8 3
-15 1 -15 -4z"/>
<path d="M2495 1180 c-13 -6 -15 -9 -5 -9 8 0 22 4 30 9 18 12 2 12 -25 0z"/>
<path d="M2545 1180 c3 -5 1 -10 -6 -10 -7 0 -10 -2 -7 -5 8 -9 38 6 32 16 -3
5 -10 9 -15 9 -6 0 -7 -4 -4 -10z"/>
<path d="M2598 1183 c7 -3 16 -2 19 1 4 3 -2 6 -13 5 -11 0 -14 -3 -6 -6z"/>
<path d="M2405 1170 c3 -5 8 -10 11 -10 2 0 4 5 4 10 0 6 -5 10 -11 10 -5 0
-7 -4 -4 -10z"/>
<path d="M2470 400 c8 -5 24 -10 34 -10 26 0 18 6 -19 14 -22 5 -26 4 -15 -4z"/>
<path d="M2568 393 c6 -2 18 -2 25 0 6 3 1 5 -13 5 -14 0 -19 -2 -12 -5z"/>
<path d="M2653 393 c9 -2 23 -2 30 0 6 3 -1 5 -18 5 -16 0 -22 -2 -12 -5z"/>
<path d="M2320 3475 c0 -9 10 -15 26 -15 14 0 32 7 40 15 14 13 11 15 -25 15
-30 0 -41 -4 -41 -15z"/>
<path d="M2938 2996 c-15 -8 -30 -11 -34 -8 -4 4 -4 2 -1 -4 4 -6 -3 -22 -16
-36 -30 -32 -31 -110 0 -157 20 -32 20 -36 6 -60 l-15 -26 19 24 c19 23 21 23
46 7 18 -12 42 -16 80 -14 31 1 53 6 51 10 -3 5 0 8 6 8 6 0 24 15 41 32 24
27 29 41 29 86 0 31 -7 66 -17 85 -9 18 -16 37 -14 42 1 6 -1 7 -4 3 -4 -4
-20 -1 -36 7 -35 19 -106 19 -141 1z"/>
<path d="M2822 2900 c0 -14 2 -19 5 -12 2 6 2 18 0 25 -3 6 -5 1 -5 -13z"/>
<path d="M2280 2640 c0 -22 5 -40 10 -40 6 0 10 18 10 40 0 22 -4 40 -10 40
-5 0 -10 -18 -10 -40z"/>
<path d="M2408 2403 c7 -3 16 -2 19 1 4 3 -2 6 -13 5 -11 0 -14 -3 -6 -6z"/>
<path d="M2278 2383 c23 -2 59 -2 80 0 20 2 1 4 -43 4 -44 0 -61 -2 -37 -4z"/>
<path d="M2408 2383 c7 -3 16 -2 19 1 4 3 -2 6 -13 5 -11 0 -14 -3 -6 -6z"/>
<path d="M2397 1786 c-4 -10 -1 -13 9 -9 15 6 19 23 5 23 -5 0 -11 -7 -14 -14z"/>
<path d="M2760 1779 c0 -5 -4 -7 -10 -4 -6 3 -7 -1 -4 -9 5 -13 8 -13 20 -1
16 16 18 25 4 25 -5 0 -10 -5 -10 -11z"/>
<path d="M2730 1729 c0 -5 5 -7 10 -4 6 3 10 8 10 11 0 2 -4 4 -10 4 -5 0 -10
-5 -10 -11z"/>
<path d="M2546 1587 c3 -10 9 -15 12 -12 3 3 0 11 -7 18 -10 9 -11 8 -5 -6z"/>
<path d="M2528 1563 c-3 -12 0 -20 8 -20 16 0 17 6 5 25 -6 11 -9 9 -13 -5z"/>
<path d="M2570 1485 c0 -8 2 -15 4 -15 2 0 6 7 10 15 3 8 1 15 -4 15 -6 0 -10
-7 -10 -15z"/>
<path d="M2178 2193 c7 -3 16 -2 19 1 4 3 -2 6 -13 5 -11 0 -14 -3 -6 -6z"/>
<path d="M2498 293 c7 -3 16 -2 19 1 4 3 -2 6 -13 5 -11 0 -14 -3 -6 -6z"/>
<path d="M2578 293 c6 -2 18 -2 25 0 6 3 1 5 -13 5 -14 0 -19 -2 -12 -5z"/>
<path d="M2055 260 c3 -5 8 -10 11 -10 2 0 4 5 4 10 0 6 -5 10 -11 10 -5 0 -7
-4 -4 -10z"/>
<path d="M3006 253 c-6 -14 -5 -15 5 -6 7 7 10 15 7 18 -3 3 -9 -2 -12 -12z"/>
<path d="M1940 240 c0 -5 5 -10 11 -10 5 0 7 5 4 10 -3 6 -8 10 -11 10 -2 0
-4 -4 -4 -10z"/>
<path d="M2320 221 c0 -17 6 -21 30 -21 33 0 40 14 13 24 -10 3 -24 9 -30 12
-8 4 -13 -2 -13 -15z"/>
<path d="M2776 192 c-3 -5 1 -9 9 -9 8 0 12 4 9 9 -3 4 -7 8 -9 8 -2 0 -6 -4
-9 -8z"/>
<path d="M2333 183 c9 -2 23 -2 30 0 6 3 -1 5 -18 5 -16 0 -22 -2 -12 -5z"/>
<path d="M2428 173 c12 -2 30 -2 40 0 9 3 -1 5 -23 4 -22 0 -30 -2 -17 -4z"/>
</g>
</svg>
